<?xml version="1.0" encoding="UTF-8"?>
<svg id="Calque_1" data-name="Calque 1" xmlns="http://www.w3.org/2000/svg" viewBox="0 0 342.67 342.67">
  <defs>
    <style>
      .cls-1 {
        fill: #fff;
      }

      .cls-2 {
        fill: #0854e8;
      }
    </style>
  </defs>
  <path class="cls-2" d="M19.42,0h323.25v322.58c0,11.08-9,20.08-20.08,20.08H0V19.42C0,8.7,8.7,0,19.42,0Z"/>
  <g>
    <g>
      <path class="cls-1" d="M67.73,172.6h-24.09l-15.07-69.08h17.73l8.71,43.05,1.23,9.53,1.23-9.53,8.3-43.05h17.42l-15.48,69.08Z"/>
      <path class="cls-1" d="M109.25,173.83h-.72c-23.37,0-28.9-13.02-28.9-35.46,0-26.14,11.38-36.08,29.21-36.08h.82c23.27,0,28.9,13.12,28.9,35.57,0,26.14-11.38,35.98-29.31,35.98ZM109.14,116.33c-8.4,0-11.38,6.15-11.38,21.73,0,14.66,2.46,21.63,11.27,21.63,8.3,0,11.38-6.25,11.38-21.73s-2.46-21.63-11.27-21.63Z"/>
      <path class="cls-1" d="M142.15,172.6v-69.08h17.42v69.08h-17.42Z"/>
      <path class="cls-1" d="M199.75,136.11l16.5,36.49h-19.88l-7.17-17.12-1.85-5.94h-.1l-1.74,5.74-6.76,17.32h-18.65l15.99-35.98-14.45-33.11h19.68l5.53,15.17,1.54,5.23h.1l1.74-5.43,5.64-14.96h18.86l-14.96,32.59Z"/>
      <path class="cls-1" d="M53.79,245.4c-8.71,0-14.55-.1-20.09-.21v-69.08c6.97-.1,14.25-.2,21.32-.2,22.24,0,31.88,7.89,31.88,34.23,0,23.47-10.15,35.26-33.11,35.26ZM55.23,189.44c-.51,0-2.87,0-4.3.1v42.13c1.44.1,4,.2,4.41.2,9.94,0,13.63-6.87,13.63-21.52s-3.07-20.91-13.73-20.91Z"/>
      <path class="cls-1" d="M116.11,246.12c-17.73,0-25.52-7.89-25.52-23.88v-46.12h17.32v45.2c0,8.1,2.05,11.17,8.92,11.17s8.71-3.79,8.71-11.07v-45.3h17.32v43.66c0,15.89-7.48,26.34-26.75,26.34Z"/>
      <path class="cls-1" d="M67.32,317.8l-18.04-38.64v38.64h-15.58v-69.08h19.27l17.32,36.49v-36.49h15.58v69.08h-18.55Z"/>
      <path class="cls-1" d="M119.09,319.03h-.72c-23.37,0-28.9-13.02-28.9-35.46,0-26.14,11.38-36.08,29.21-36.08h.82c23.27,0,28.9,13.12,28.9,35.56,0,26.14-11.38,35.98-29.31,35.98ZM118.98,261.53c-8.4,0-11.38,6.15-11.38,21.73,0,14.66,2.46,21.63,11.27,21.63,8.3,0,11.38-6.25,11.38-21.73s-2.46-21.63-11.27-21.63Z"/>
      <path class="cls-1" d="M182.84,317.8l-9.33-27.78h-4.51v27.78h-17.01v-68.98c6.15-.21,15.58-.21,22.96-.21,17.53,0,25.32,7.28,25.32,19.78,0,8.2-3.48,14.76-9.94,17.63l12.2,31.77h-19.68ZM173.51,261.84c-1.43,0-2.97.1-4.51.21v14.96h4.51c7.38,0,9.02-3.69,9.02-7.69,0-4.41-1.33-7.48-9.02-7.48Z"/>
      <path class="cls-1" d="M224.55,318.01c-8.71,0-14.55-.1-20.09-.21v-69.08c6.97-.1,14.25-.2,21.32-.2,22.24,0,31.88,7.89,31.88,34.23,0,23.47-10.15,35.26-33.11,35.26ZM225.99,262.04c-.51,0-2.87,0-4.3.1v42.13c1.44.1,4,.2,4.41.2,9.94,0,13.63-6.87,13.63-21.52s-3.07-20.91-13.73-20.91Z"/>
    </g>
    <g>
      <path class="cls-1" d="M28.69,99.99V30.91h17.42v55.04h15.37v14.04H28.69Z"/>
      <path class="cls-1" d="M95.72,99.99l-2.26-10.97h-16.19l-2.25,10.97h-16.91l15.07-69.08h25.52l14.86,69.08h-17.83ZM85.47,46.29h-.31l-5.94,29.31h12.3l-6.05-29.31Z"/>
    </g>
  </g>
</svg>